<svg width="24" height="24" viewBox="0 0 512 512" style="color:currentColor" xmlns="http://www.w3.org/2000/svg" class="h-full w-full"><rect width="512" height="512" x="0" y="0" rx="30" fill="transparent" stroke="transparent" stroke-width="0" stroke-opacity="100%" paint-order="stroke"></rect><svg width="256px" height="256px" viewBox="0 0 1200 1200" fill="currentColor" x="128" y="128" role="img" style="display:inline-block;vertical-align:middle" xmlns="http://www.w3.org/2000/svg"><g fill="currentColor"><path fill="currentColor" d="M.008.015v1199.984H1200V987.564h-130.664V870.733H1200V658.377h-130.664V541.545H1200V329.282h-130.664V212.451H1200l-.016-212.45H0l.008.014zm534.665 209.56c95.784 0 173.373 77.68 173.373 173.466c0 67.881-38.969 126.625-95.78 155.109l222.013 132.926h2.696v187.473H232.28V671.076h2.784L456.982 538.15c-56.812-28.484-95.78-87.229-95.78-155.109c0-95.785 77.68-173.466 173.466-173.466h.005z"/></g></svg></svg>